<?xml version="1.0" encoding="UTF-8"?>
<svg width="160px" height="150px" viewBox="0 0 160 150" version="1.1" xmlns="http://www.w3.org/2000/svg" xmlns:xlink="http://www.w3.org/1999/xlink">
    <defs>
        <polygon id="path-1" points="0.1956 0.0730212766 159.84106 0.0730212766 159.84106 149.996745 0.1956 149.996745"></polygon>
    </defs>
    <g id="01" stroke="none" stroke-width="1" fill="none" fill-rule="evenodd" transform="translate(-641.000000, -400.000000)">
        <g id="bear-face" transform="translate(641.000000, 400.000000)">
            <path d="M22.9550718,53 C24.5502547,50.9194766 26.2880963,48.9370911 28.1621121,47.046301 C24.3492358,44.6321087 21.791107,40.3892803 21.791107,35.5085556 C21.791107,27.981379 27.8573414,21.8608455 35.3177397,21.8608455 C41.9902733,21.8608455 47.511811,26.7677403 48.6271422,33.1826875 C51.0069477,32.1227982 53.4645669,31.1872169 56,30.3824862 C53.7077351,21.0037745 45.3232978,14 35.3177397,14 C23.5646132,14 14,23.6502265 14,35.5085556 C14,42.7282335 17.5470125,49.1039255 22.9550718,53 Z" id="Fill-1" fill="#FFFFFF"></path>
            <g id="Group-5">
                <mask id="mask-2" fill="white">
                    <use xlink:href="#path-1"></use>
                </mask>
                <g id="Clip-3"></g>
                <path d="M124.45376,22.2124468 C131.95502,22.2124468 138.05448,28.3031489 138.05448,35.7936383 C138.05448,40.7384681 135.36498,45.0387447 131.40734,47.4151277 C133.30466,49.2967021 135.04876,51.2922128 136.63964,53.3788723 C142.2175,49.5148085 145.885,43.0790426 145.885,35.8066596 C145.885,23.9931064 136.27126,14.4029362 124.45376,14.4029362 C114.35428,14.4029362 105.8848,21.4116383 103.63214,30.8064894 C106.1782,31.6203191 108.66232,32.5741277 111.05516,33.6321064 C112.11466,27.1702979 117.69252,22.2124468 124.45376,22.2124468 Z" id="Fill-2" fill="#FFFFFF" mask="url(#mask-2)"></path>
                <path d="M4.81502,84.2653404 C4.81502,120.506809 38.54624,149.996745 80.02322,149.996745 C121.5002,149.996745 155.23142,120.506809 155.23142,84.2653404 C155.23142,75.9870638 153.50036,67.9268936 150.06106,60.2964255 C156.31374,53.6848723 159.84106,44.9085319 159.84106,35.7936383 C159.84106,16.0957021 143.79534,0.0730212766 124.07234,0.0730212766 C110.5466,0.0730212766 98.39984,7.56351064 92.28734,19.4031064 C84.13734,18.2311915 75.7298,18.2311915 67.57002,19.4258936 C61.4673,7.57653191 49.3075,0.0730212766 35.77198,0.0730212766 C16.04572,0.0730212766 0,16.0957021 0,35.7936383 C0,44.9866596 3.57948,53.8118298 9.92018,60.4364043 C6.53304,68.0278085 4.81502,76.0391489 4.81502,84.2653404 Z M7.81748,35.7936383 C7.81748,20.4057447 20.36196,7.8792766 35.77198,7.8792766 C47.16894,7.8792766 57.33036,14.6959149 61.6466,25.2496596 L62.84302,28.1761915 L65.96284,27.6162766 C75.14626,25.9235106 84.74696,25.9235106 93.9043,27.5772128 L97.01108,28.1371277 L98.2075,25.2138511 C102.53678,14.6828936 112.68516,7.8792766 124.07234,7.8792766 C139.4791,7.8792766 152.02358,20.4057447 152.02358,35.7936383 C152.02358,43.6780213 148.6234,51.243383 142.71302,56.5462979 L140.48644,58.5418085 L141.83608,61.2111702 C144.15394,65.778383 145.75786,70.5344043 146.62502,75.4043617 C147.19552,78.3927447 147.48892,81.4429787 147.48892,84.5713404 C147.48892,100.454043 139.8866,114.836043 127.6127,125.236787 C115.41052,135.702638 98.57588,142.174213 80.02322,142.174213 C66.98322,142.174213 54.80712,138.970979 44.4827,133.440191 C25.1998,123.32917 12.35214,105.223085 12.35214,84.5713404 C12.35214,76.2051702 14.47766,68.2687021 18.26252,61.1102553 L19.4948,58.6427234 L17.25518,56.6472128 C11.25678,51.3442979 7.81748,43.7398723 7.81748,35.7936383 Z" id="Fill-4" fill="#FFFFFF" mask="url(#mask-2)"></path>
            </g>
            <path d="M32,103.504913 C32,121.980105 53.7648328,137 80.5,137 C107.244977,137 129,121.980105 129,103.504913 C129,85.032996 107.244977,70 80.5,70 C53.7648328,70 32,85.032996 32,103.504913 Z M80.5,99.5779929 C74.3557511,99.5779929 69.6045038,96.6368969 69.6045038,94.1150218 C69.6045038,91.5964218 74.3557511,88.6520506 80.5,88.6520506 C86.6442489,88.6520506 91.3954962,91.5964218 91.3954962,94.1150218 C91.3954962,96.6368969 86.6442489,99.5779929 80.5,99.5779929 Z M80.5,77.8669404 C102.915554,77.8669404 121.142294,89.3693112 121.142294,103.504913 C121.142294,116.811898 104.998517,127.764042 84.4206783,129.015154 L84.4206783,107.153444 C92.9912352,105.899057 99.2499326,100.62932 99.2499326,94.1150218 C99.2499326,86.644376 91.0129113,80.7982109 80.5,80.7982109 C69.9870887,80.7982109 61.7467975,86.644376 61.7467975,94.1150218 C61.7467975,100.62932 68.0054949,105.899057 76.5760518,107.153444 L76.5760518,129.015154 C56.0014833,127.764042 39.8544364,116.811898 39.8544364,103.504913 C39.8544364,89.3693112 58.0811758,77.8669404 80.5,77.8669404 Z" id="Fill-6" fill="#FFFFFF"></path>
            <path d="M50.9987879,61 C44.3337374,61 44.3337374,71 50.9987879,71 C57.6606076,71 57.6735307,61 50.9987879,61 Z" id="Fill-7" fill="#FFFFFF"></path>
            <path d="M108.998788,71 C115.667071,71 115.667071,61 108.998788,61 C102.333737,61 102.333737,71 108.998788,71 Z" id="Fill-8" fill="#FFFFFF"></path>
        </g>
    </g>
</svg>
