<?xml version="1.0" encoding="UTF-8"?>
<svg width="27px" height="25px" viewBox="0 0 27 25" version="1.1" xmlns="http://www.w3.org/2000/svg" xmlns:xlink="http://www.w3.org/1999/xlink">
    <defs></defs>
    <g id="03" stroke="none" stroke-width="1" fill="none" fill-rule="evenodd" transform="translate(-918.000000, -260.000000)">
        <path d="M934.9215,272.948053 C934.6815,272.720684 934.6815,272.382474 934.9215,272.153684 L943.9215,263.627368 C944.1615,263.4 944.28,263.056105 944.28,262.834421 C944.28,262.607053 944.1615,262.263158 943.9215,262.034368 L942.24,260.441368 C942,260.214 941.643,260.103158 941.403,260.103158 C941.0385,260.103158 940.7985,260.214 940.5585,260.441368 L931.5585,268.967684 C931.3185,269.195053 930.9615,269.195053 930.72,268.967684 L921.72,260.441368 C921.48,260.214 921.117,260.103158 920.883,260.103158 C920.643,260.103158 920.28,260.214 920.0385,260.441368 L918.357,262.034368 C918.117,262.263158 918,262.607053 918,262.834421 C918,263.056105 918.117,263.4 918.357,263.627368 L927.357,272.153684 C927.597,272.382474 927.597,272.720684 927.357,272.948053 L918.357,281.474368 C918.117,281.701737 918,282.045632 918,282.274421 C918,282.501789 918.117,282.84 918.357,283.067368 L920.0385,284.660368 C920.28,284.887737 920.643,285 920.883,285 C921.117,285 921.48,284.887737 921.72,284.660368 L930.72,276.134053 C930.9615,275.906684 931.3185,275.906684 931.5585,276.134053 L940.5585,284.660368 C940.7985,284.887737 941.1615,285 941.403,285 C941.643,285 942,284.887737 942.24,284.660368 L943.9215,283.067368 C944.1615,282.84 944.28,282.501789 944.28,282.274421 C944.28,282.045632 944.1615,281.701737 943.9215,281.474368 L934.9215,272.948053 Z" id="cancel" fill="#FFFFFF"></path>
    </g>
</svg>
