<?xml version="1.0" encoding="UTF-8"?>
<svg width="60px" height="60px" viewBox="0 0 60 60" version="1.1" xmlns="http://www.w3.org/2000/svg" xmlns:xlink="http://www.w3.org/1999/xlink">
    <defs>
        <polygon id="path-1" points="0.0387096774 0.127659574 59.9219355 0.127659574 59.9219355 59.3623404 0.0387096774 59.3623404"></polygon>
    </defs>
    <g id="02" stroke="none" stroke-width="1" fill="none" fill-rule="evenodd" transform="translate(-1340.000000, -924.000000)">
        <g id="add" transform="translate(1340.000000, 924.000000)">
            <g id="Group-3">
                <mask id="mask-2" fill="white">
                    <use xlink:href="#path-1"></use>
                </mask>
                <g id="Clip-2"></g>
                <path d="M29.9870968,0.127659574 C13.4703226,0.127659574 0,13.4048936 0,29.7434043 C0,46.0851064 13.42,59.3623404 29.9870968,59.3623404 C46.5019355,59.3623404 59.9219355,46.0851064 59.9219355,29.7434043 C59.9219355,13.4048936 46.5019355,0.127659574 29.9870968,0.127659574 Z M29.9870968,55.2255319 C15.7935484,55.2255319 4.2316129,43.7859574 4.2316129,29.7434043 C4.2316129,15.7008511 15.7935484,4.26382979 29.9870968,4.26382979 C44.1806452,4.26382979 55.7406452,15.7008511 55.7406452,29.7434043 C55.7406452,43.7859574 44.1806452,55.2255319 29.9870968,55.2255319 Z" id="Fill-1" fill="#7ED321" mask="url(#mask-2)"></path>
            </g>
            <path d="M43.7677419,27.3951064 L32.1045161,27.3951064 L32.1045161,15.803617 C32.1045161,14.6291489 31.1741935,13.7112766 29.9870968,13.7112766 C28.8006452,13.7112766 27.8703226,14.6291489 27.8703226,15.803617 L27.8703226,27.3453191 L16.2070968,27.3453191 C15.02,27.3453191 14.0903226,28.2625532 14.0903226,29.4395745 C14.0903226,30.6140426 15.02,31.5312766 16.2070968,31.5312766 L27.8703226,31.5312766 L27.8703226,43.0729787 C27.8703226,44.2474468 28.8006452,45.1653191 29.9870968,45.1653191 C31.1741935,45.1653191 32.1045161,44.2474468 32.1045161,43.0729787 L32.1045161,31.5312766 L43.7677419,31.5312766 C44.9548387,31.5312766 45.8845161,30.6140426 45.8845161,29.4395745 C45.8845161,28.2625532 44.9548387,27.3951064 43.7677419,27.3951064 Z" id="Fill-4" fill="#7ED321"></path>
        </g>
    </g>
</svg>
