<?xml version="1.0" encoding="UTF-8"?>
<svg width="26px" height="26px" viewBox="0 0 26 26" version="1.1" xmlns="http://www.w3.org/2000/svg" xmlns:xlink="http://www.w3.org/1999/xlink">
    <defs></defs>
    <g id="04" stroke="none" stroke-width="1" fill="none" fill-rule="evenodd" transform="translate(-1378.000000, -47.000000)">
        <g id="filter" transform="translate(1378.000000, 47.000000)" fill="#FFFFFF">
            <path d="M25.8138186,0.830068111 C25.6050137,0.352167183 25.24367,0.113176471 24.7283387,0.113176471 L1.19544092,0.113176471 C0.680673114,0.113176471 0.319087975,0.352167183 0.110605002,0.830068111 C-0.0975559883,1.33252012 -0.0119894249,1.76172136 0.368109646,2.11702786 L9.43236971,11.1809659 L9.43236971,20.1162724 C9.43236971,20.4354365 9.5486855,20.7108916 9.78171955,20.9441672 L14.488122,25.6503282 C14.7088403,25.8829598 14.9846174,26 15.3154533,26 C15.4625988,26 15.615701,25.9691703 15.7751623,25.9078328 C16.2530632,25.6993498 16.4923759,25.3377647 16.4923759,24.8229969 L16.4923759,11.1812879 L25.5562335,2.11702786 C25.9364131,1.76172136 26.0218991,1.33284211 25.8138186,0.830068111 Z"></path>
        </g>
    </g>
</svg>
