<?xml version="1.0" encoding="UTF-8"?>
<svg width="146px" height="56px" viewBox="0 0 146 56" version="1.1" xmlns="http://www.w3.org/2000/svg" xmlns:xlink="http://www.w3.org/1999/xlink">
    <defs></defs>
    <g id="02" stroke="none" stroke-width="1" fill="none" fill-rule="evenodd" transform="translate(-37.000000, -30.000000)">
        <g id="header" fill="#FFFFFF">
            <g id="logo" transform="translate(37.000000, 30.000000)">
                <g id="001-animal">
                    <path d="M34.2215777,27.2138146 C36.7825649,24.5103805 38.3413143,20.9323902 38.3413143,17.0077463 C38.3413143,15.0512976 37.9537025,13.1811707 37.2477536,11.4622439 C39.3785298,10.5652878 40.8750816,8.45190244 40.8750816,5.98803902 C40.8750816,2.71108293 38.2280794,0.0546341463 34.9627764,0.0546341463 C32.6092051,0.0546341463 30.5772373,1.43482927 29.6256285,3.43239024 C27.4277552,2.35732683 24.9349539,1.74965854 22.2932596,1.74965854 C19.6515653,1.74965854 17.1580835,2.35732683 14.9603463,3.43239024 C14.0087375,1.43482927 11.9767696,0.0546341463 9.6231983,0.0546341463 C6.35789538,0.0546341463 3.71089319,2.71108293 3.71089319,5.98803902 C3.71089319,8.45190244 5.207445,10.5652878 7.33876559,11.4622439 C6.63268058,13.180761 6.24520486,15.0512976 6.24520486,17.0077463 C6.24520486,20.9323902 7.80395421,24.5103805 10.3648053,27.2138146 C5.8751499,31.4767805 -1.33336832,38.3337756 0.37481845,45.1918634 C1.16487695,48.3631024 3.22597012,49.6185951 5.40778369,49.7322341 C5.562529,45.6741463 8.52487408,42.4372098 12.15751,42.4372098 C15.8890903,42.4372098 18.9147217,45.8529366 18.9147217,50.0661854 C18.9147217,52.4633951 17.9342598,54.6012293 16.4031387,55.9997268 L28.1832443,55.9997268 C26.6515788,54.6012293 25.6717974,52.4633951 25.6717974,50.0661854 C25.6717974,45.8529366 28.6968844,42.4372098 32.4288731,42.4372098 C36.0616451,42.4372098 39.0234458,45.6741463 39.1785994,49.7322341 C41.3600046,49.6185951 43.4210978,48.3631024 44.2111563,45.1918634 C45.9197514,38.3337756 38.7113692,31.4767805 34.2215777,27.2138146 Z M9.00435317,8.45149268 C7.90439576,8.17395122 7.08943102,7.17783415 7.08943102,5.98803902 C7.08943102,4.58380488 8.22395775,3.44522927 9.6231983,3.44522927 C10.7710628,3.44522927 11.7391396,4.21147317 12.0506717,5.26140488 C10.8842977,6.18171707 9.85769801,7.25582439 9.00435317,8.45149268 Z M29.0503352,15.7362732 C29.7500236,15.7362732 30.3172869,16.305561 30.3172869,17.0077463 C30.3172869,17.7099317 29.7500236,18.2792195 29.0503352,18.2792195 C28.3502386,18.2792195 27.7835197,17.7099317 27.7835197,17.0077463 C27.7835197,16.305561 28.3502386,15.7362732 29.0503352,15.7362732 Z M15.5360478,15.7362732 C16.2357361,15.7362732 16.8029995,16.305561 16.8029995,17.0077463 C16.8029995,17.7099317 16.2357361,18.2792195 15.5360478,18.2792195 C14.8359512,18.2792195 14.2692322,17.7099317 14.2692322,17.0077463 C14.2692322,16.305561 14.8359512,15.7362732 15.5360478,15.7362732 Z M22.2932596,32.2658341 C16.6950725,32.2658341 12.15751,29.2295415 12.15751,25.4840976 C12.15751,21.7392 16.6950725,18.7027707 22.2932596,18.7027707 C27.8909023,18.7027707 32.4288731,21.7392 32.4288731,25.4840976 C32.4288731,29.2295415 27.8909023,32.2658341 22.2932596,32.2658341 Z M32.535303,5.26140488 C32.8468351,4.21147317 33.8154564,3.44522927 34.9627764,3.44522927 C36.362017,3.44522927 37.4965437,4.58380488 37.4965437,5.98803902 C37.4965437,7.17783415 36.681579,8.17395122 35.5820299,8.45149268 C34.7288211,7.25582439 33.701677,6.18171707 32.535303,5.26140488 Z" id="Fill-1"></path>
                    <path d="M15.0071645,50.4904195 C15.0071645,52.1288976 13.6838676,53.4567805 12.0506717,53.4567805 C10.4180203,53.4567805 9.09472334,52.1288976 9.09472334,50.4904195 C9.09472334,48.8519415 10.4180203,47.5233756 12.0506717,47.5233756 C13.6838676,47.5233756 15.0071645,48.8519415 15.0071645,50.4904195 Z" id="Fill-3"></path>
                    <path d="M35.4896182,50.4904195 C35.4896182,52.1288976 34.1663213,53.4567805 32.5336698,53.4567805 C30.9010183,53.4567805 29.577177,52.1288976 29.577177,50.4904195 C29.577177,48.8519415 30.9010183,47.5233756 32.5336698,47.5233756 C34.1663213,47.5233756 35.4896182,48.8519415 35.4896182,50.4904195 Z" id="Fill-4"></path>
                    <path d="M22.2932596,22.0939122 C20.4271972,22.0939122 18.9147217,22.2908683 18.9147217,23.7890732 C18.9147217,25.2871415 20.4271972,27.1796683 22.2932596,27.1796683 C24.1593219,27.1796683 25.6717974,25.2871415 25.6717974,23.7890732 C25.6717974,22.2908683 24.1593219,22.0939122 22.2932596,22.0939122 Z" id="Fill-5"></path>
                </g>
                <path d="M60.1203028,22.7810732 C60.4358823,22.7337233 60.7222372,22.6982115 60.9793761,22.6745366 C61.236515,22.6508617 61.4644302,22.6390244 61.6631284,22.6390244 C61.8735148,22.6390244 62.1101959,22.6508617 62.3731789,22.6745366 C62.6361619,22.6982115 62.9195948,22.7337233 63.2234862,22.7810732 L63.2234862,32.7244878 L67.2734037,32.7244878 C67.3318443,33.0204242 67.3698302,33.2778851 67.3873624,33.496878 C67.4048946,33.715871 67.4136606,33.9141455 67.4136606,34.0917073 C67.4136606,34.2929441 67.4048946,34.5030558 67.3873624,34.7220488 C67.3698302,34.9410417 67.3318443,35.2044212 67.2734037,35.5121951 L60.1203028,35.5121951 L60.1203028,22.7810732 Z M68.3954587,29.1732683 C68.3954587,28.2262717 68.5035723,27.3473536 68.7198028,26.5364878 C68.9360332,25.725622 69.26914,25.0242631 69.719133,24.4323902 C70.1691261,23.8405174 70.741836,23.3759041 71.4372798,23.0385366 C72.1327237,22.701169 72.9596466,22.5324878 73.9180734,22.5324878 C74.8765002,22.5324878 75.7005011,22.701169 76.3901009,23.0385366 C77.0797007,23.3759041 77.6494886,23.8405174 78.0994817,24.4323902 C78.5494747,25.0242631 78.8825815,25.725622 79.0988119,26.5364878 C79.3150424,27.3473536 79.423156,28.2262717 79.423156,29.1732683 C79.423156,30.1202649 79.3150424,30.9932643 79.0988119,31.7922927 C78.8825815,32.5913211 78.5494747,33.2838019 78.0994817,33.8697561 C77.6494886,34.4557102 77.0797007,34.9114455 76.3901009,35.2369756 C75.7005011,35.5625057 74.8765002,35.7252683 73.9180734,35.7252683 C72.9596466,35.7252683 72.1327237,35.5625057 71.4372798,35.2369756 C70.741836,34.9114455 70.1691261,34.4557102 69.719133,33.8697561 C69.26914,33.2838019 68.9360332,32.5913211 68.7198028,31.7922927 C68.5035723,30.9932643 68.3954587,30.1202649 68.3954587,29.1732683 Z M76.1621835,29.1732683 C76.1621835,26.5927025 75.4199982,25.302439 73.9356055,25.302439 C72.4161484,25.302439 71.6564312,26.5927025 71.6564312,29.1732683 C71.6564312,30.4635512 71.8405165,31.4253302 72.2086927,32.0586341 C72.5768688,32.6919381 73.1466567,33.0085854 73.9180734,33.0085854 C75.4141543,33.0085854 76.1621835,31.7301591 76.1621835,29.1732683 Z M87.7509083,28.6050732 C88.0664878,28.5577233 88.3469988,28.5222115 88.5924495,28.4985366 C88.8379003,28.4748617 89.0658155,28.4630244 89.2762018,28.4630244 C89.4749001,28.4630244 89.7145032,28.4748617 89.9950183,28.4985366 C90.2755335,28.5222115 90.5502005,28.5577233 90.8190275,28.6050732 L90.8190275,35.0682927 C90.1294277,35.3287167 89.4486043,35.5003573 88.7765367,35.5832195 C88.1044691,35.6660817 87.5288373,35.7075122 87.0496239,35.7075122 C86.0210683,35.7075122 85.1210956,35.5447496 84.3496789,35.2192195 C83.5782622,34.8936894 82.9325026,34.4409135 82.4123807,33.860878 C81.8922589,33.2808426 81.5036343,32.5883617 81.2464954,31.7834146 C80.9893565,30.9784675 80.860789,30.1025088 80.860789,29.1555122 C80.860789,28.2085156 80.9952005,27.3295976 81.2640275,26.5187317 C81.5328546,25.7078659 81.9214791,25.006507 82.4299128,24.4146341 C82.9383466,23.8227613 83.5665742,23.3611073 84.3146147,23.0296585 C85.0626551,22.6982097 85.910032,22.5324878 86.8567706,22.5324878 C87.417801,22.5324878 87.952525,22.5739183 88.4609587,22.6567805 C88.9693925,22.7396427 89.5274924,22.9112833 90.1352752,23.1717073 C90.111899,23.6570431 90.0242393,24.1305343 89.8722936,24.5921951 C89.7203479,25.053856 89.5625605,25.4444862 89.3989266,25.7640976 C89.165164,25.6812354 88.9518588,25.6102117 88.7590046,25.5510244 C88.5661504,25.4918371 88.3820651,25.444488 88.2067431,25.4089756 C88.0314211,25.3734632 87.8561018,25.3468294 87.6807798,25.3290732 C87.5054578,25.311317 87.3184505,25.302439 87.1197523,25.302439 C86.1730136,25.302439 85.4425163,25.6250049 84.9282385,26.2701463 C84.4139607,26.9152878 84.1568257,27.8770668 84.1568257,29.1555122 C84.1568257,30.4221202 84.4081168,31.3661432 84.9107064,31.9876098 C85.4132961,32.6090763 86.1613253,32.9198049 87.1548165,32.9198049 C87.376891,32.9198049 87.5755863,32.902049 87.7509083,32.8665366 L87.7509083,28.6050732 Z M92.4144495,29.1732683 C92.4144495,28.2262717 92.5225631,27.3473536 92.7387936,26.5364878 C92.955024,25.725622 93.2881308,25.0242631 93.7381239,24.4323902 C94.1881169,23.8405174 94.7608268,23.3759041 95.4562706,23.0385366 C96.1517145,22.701169 96.9786374,22.5324878 97.9370642,22.5324878 C98.895491,22.5324878 99.719492,22.701169 100.409092,23.0385366 C101.098692,23.3759041 101.668479,23.8405174 102.118472,24.4323902 C102.568466,25.0242631 102.901572,25.725622 103.117803,26.5364878 C103.334033,27.3473536 103.442147,28.2262717 103.442147,29.1732683 C103.442147,30.1202649 103.334033,30.9932643 103.117803,31.7922927 C102.901572,32.5913211 102.568466,33.2838019 102.118472,33.8697561 C101.668479,34.4557102 101.098692,34.9114455 100.409092,35.2369756 C99.719492,35.5625057 98.895491,35.7252683 97.9370642,35.7252683 C96.9786374,35.7252683 96.1517145,35.5625057 95.4562706,35.2369756 C94.7608268,34.9114455 94.1881169,34.4557102 93.7381239,33.8697561 C93.2881308,33.2838019 92.955024,32.5913211 92.7387936,31.7922927 C92.5225631,30.9932643 92.4144495,30.1202649 92.4144495,29.1732683 Z M100.181174,29.1732683 C100.181174,26.5927025 99.4389891,25.302439 97.9545963,25.302439 C96.4351392,25.302439 95.675422,26.5927025 95.675422,29.1732683 C95.675422,30.4635512 95.8595073,31.4253302 96.2276835,32.0586341 C96.5958596,32.6919381 97.1656475,33.0085854 97.9370642,33.0085854 C99.4331451,33.0085854 100.181174,31.7301591 100.181174,29.1732683 Z M114.084138,31.7834146 C114.084138,32.5646868 113.943882,33.2098186 113.663367,33.7188293 C113.382852,34.2278399 112.997149,34.6303075 112.506248,34.9262439 C112.015346,35.2221803 111.430948,35.4293327 110.753037,35.5477073 C110.075125,35.6660819 109.338784,35.7252683 108.543991,35.7252683 C107.912832,35.7252683 107.345966,35.7015937 106.843376,35.6542439 C106.340786,35.6068941 105.797297,35.5477077 105.21289,35.4766829 L105.21289,22.7810732 C105.657039,22.7100484 106.142089,22.650862 106.668055,22.6035122 C107.194021,22.5561624 107.807639,22.5324878 108.508927,22.5324878 C109.17515,22.5324878 109.797534,22.5887149 110.376096,22.7011707 C110.954659,22.8136266 111.460163,23.0030231 111.892624,23.2693659 C112.325085,23.5357086 112.666957,23.890827 112.918252,24.3347317 C113.169547,24.7786364 113.295193,25.3379478 113.295193,26.0126829 C113.295193,26.5690434 113.172469,27.0750872 112.927018,27.5308293 C112.681568,27.9865714 112.371837,28.3387305 111.997817,28.5873171 C112.266644,28.6938542 112.526701,28.8329422 112.777995,29.0045854 C113.02929,29.1762285 113.251361,29.3892995 113.444216,29.6438049 C113.63707,29.8983102 113.791935,30.2031202 113.908817,30.5582439 C114.025698,30.9133676 114.084138,31.3217538 114.084138,31.7834146 Z M108.245945,30.1498537 L108.245945,33.132878 C108.327762,33.1447155 108.430031,33.1535935 108.552757,33.1595122 C108.675482,33.1654309 108.836192,33.1683902 109.03489,33.1683902 C109.256964,33.1683902 109.481958,33.1447157 109.709876,33.0973659 C109.937795,33.050016 110.145256,32.9701144 110.332266,32.8576585 C110.519276,32.7452027 110.668298,32.591318 110.779335,32.396 C110.890372,32.200682 110.94589,31.9550584 110.94589,31.659122 C110.94589,31.090924 110.761805,30.6973344 110.393628,30.4783415 C110.025452,30.2593485 109.549168,30.1498537 108.964761,30.1498537 L108.245945,30.1498537 Z M108.245945,27.6284878 L108.736844,27.6284878 C109.239434,27.6284878 109.63098,27.5249116 109.911495,27.3177561 C110.192011,27.1106006 110.332266,26.7525229 110.332266,26.2435122 C110.332266,25.9949256 110.282592,25.7877732 110.183243,25.6220488 C110.083894,25.4563244 109.958248,25.3261143 109.806303,25.2314146 C109.654357,25.136715 109.484882,25.0716099 109.297872,25.0360976 C109.110861,25.0005852 108.929698,24.9828293 108.754376,24.9828293 L108.500161,24.9828293 C108.400811,24.9828293 108.316074,24.9887479 108.245945,25.0005854 L108.245945,27.6284878 Z M122.324229,28.8536585 C122.324229,29.2679696 122.271634,29.7296235 122.16644,30.2386341 L118.782743,30.2386341 L118.782743,32.76 L123.183303,32.76 C123.288496,33.2571732 123.341092,33.7069899 123.341092,34.1094634 C123.341092,34.5474493 123.288496,35.0150219 123.183303,35.5121951 L115.67956,35.5121951 L115.67956,22.745561 L123.07811,22.745561 C123.124863,23.005985 123.159926,23.2486493 123.183303,23.473561 C123.206679,23.6984727 123.218367,23.9115437 123.218367,24.1127805 C123.218367,24.5034166 123.171615,24.9709891 123.07811,25.5155122 L118.782743,25.5155122 L118.782743,27.4686829 L122.16644,27.4686829 C122.271634,27.9895311 122.324229,28.451185 122.324229,28.8536585 Z M126.987771,35.4766829 C126.718944,35.5240328 126.473497,35.5595446 126.251422,35.5832195 C126.029348,35.6068944 125.81312,35.6187317 125.602734,35.6187317 C125.392348,35.6187317 125.149822,35.6039351 124.875151,35.5743415 C124.60048,35.5447478 124.293671,35.500358 123.954716,35.4411707 L127.881908,22.7633171 C128.1858,22.7278047 128.469233,22.6982115 128.732216,22.6745366 C128.995199,22.6508617 129.2611,22.6390244 129.529927,22.6390244 C129.752001,22.6390244 129.994526,22.6508617 130.257509,22.6745366 C130.520492,22.6982115 130.821457,22.7278047 131.160413,22.7633171 L135.035009,35.4589268 C134.368786,35.5654639 133.784388,35.6187317 133.281798,35.6187317 C133.048036,35.6187317 132.814276,35.6068944 132.580514,35.5832195 C132.346751,35.5595446 132.09546,35.5240328 131.826633,35.4766829 L131.160413,33.0085854 C130.833145,33.103285 130.520492,33.1743087 130.222445,33.2216585 C129.924398,33.2690084 129.629277,33.2926829 129.337073,33.2926829 C129.068246,33.2926829 128.793579,33.2719677 128.513064,33.2305366 C128.232549,33.1891055 127.94035,33.1269598 127.636459,33.0440976 L126.987771,35.4766829 Z M129.442266,26.1014634 L128.267615,30.6647805 C128.466313,30.7239678 128.65332,30.7713169 128.828642,30.8068293 C129.003964,30.8423416 129.185128,30.8600976 129.372138,30.8600976 C129.570836,30.8600976 129.766609,30.845301 129.959463,30.8157073 C130.152317,30.7861137 130.353935,30.7417239 130.564321,30.6825366 L129.442266,26.1014634 Z M136.174596,22.7810732 C136.747315,22.7218859 137.276195,22.6656588 137.761252,22.6123902 C138.24631,22.5591217 138.757658,22.5324878 139.295312,22.5324878 C139.938159,22.5324878 140.580997,22.5946335 141.223844,22.7189268 C141.866691,22.8432201 142.439401,23.0592505 142.941991,23.3670244 C143.44458,23.6747983 143.853659,24.0950217 144.169239,24.6277073 C144.484818,25.1603929 144.642606,25.8351179 144.642606,26.6519024 C144.642606,27.0898884 144.592932,27.4834779 144.493583,27.8326829 C144.394233,28.1818879 144.265666,28.4926165 144.107876,28.764878 C143.950086,29.0371396 143.774767,29.2738852 143.581913,29.475122 C143.389059,29.6763587 143.199129,29.8479993 143.012119,29.9900488 L145.747128,35.4589268 C145.466613,35.5062767 145.159804,35.5417885 144.826693,35.5654634 C144.493581,35.5891383 144.192616,35.6009756 143.923789,35.6009756 C143.690026,35.6009756 143.418281,35.5891383 143.108546,35.5654634 C142.79881,35.5417885 142.527065,35.5062767 142.293303,35.4589268 L139.803743,29.6526829 L139.961532,29.5639024 C140.10179,29.4928777 140.256655,29.3745049 140.426133,29.2087805 C140.595611,29.0430561 140.753398,28.8447816 140.8995,28.6139512 C141.045602,28.3831208 141.168325,28.12566 141.267674,27.841561 C141.367023,27.557462 141.416697,27.26153 141.416697,26.9537561 C141.416697,26.3618832 141.253066,25.9298225 140.925798,25.657561 C140.59853,25.3852995 140.195296,25.2491707 139.716083,25.2491707 C139.599201,25.2491707 139.499854,25.2550894 139.418037,25.2669268 C139.33622,25.2787643 139.283624,25.2906016 139.260248,25.302439 L139.260248,35.4589268 C138.640777,35.5654639 138.132351,35.6187317 137.734954,35.6187317 C137.302493,35.6187317 136.782379,35.5654639 136.174596,35.4589268 L136.174596,22.7810732 Z" id="LOGOBEAR"></path>
            </g>
        </g>
    </g>
</svg>
