<?xml version="1.0" encoding="UTF-8"?>
<svg width="87px" height="87px" viewBox="0 0 87 87" version="1.1" xmlns="http://www.w3.org/2000/svg" xmlns:xlink="http://www.w3.org/1999/xlink">
    <defs></defs>
    <g id="02" stroke="none" stroke-width="1" fill="none" fill-rule="evenodd" transform="translate(-599.000000, -229.000000)">
        <g id="Group-2" transform="translate(599.000000, 226.000000)">
            <g id="icon" transform="translate(0.000000, 3.000000)">
                <circle id="Oval" fill="#E990F9" cx="43.5" cy="43.5" r="43.5"></circle>
                <g id="runer-silhouette-running-fast" transform="translate(16.000000, 25.000000)" fill="#FFFFFF">
                    <path d="M16.9319821,3.85947212 L33.8688875,3.85947212 C34.3139514,3.85947212 34.6750384,3.49684758 34.6750384,3.04988848 C34.6750384,2.60292937 34.3139514,2.24101115 33.8688875,2.24101115 L16.9319821,2.24101115 C16.4869182,2.24101115 16.1259719,2.60292937 16.1259719,3.04988848 C16.1259719,3.49684758 16.4869182,3.85947212 16.9319821,3.85947212 Z" id="Fill-1"></path>
                    <path d="M1.78419437,11.771948 L18.7210997,11.771948 C19.1661637,11.771948 19.52711,11.4098885 19.52711,10.9629294 C19.52711,10.5159703 19.1661637,10.153487 18.7210997,10.153487 L1.78419437,10.153487 C1.33913043,10.153487 0.978043478,10.5159703 0.978043478,10.9629294 C0.978043478,11.4098885 1.33913043,11.771948 1.78419437,11.771948 Z" id="Fill-2"></path>
                    <path d="M6.33104859,20.0987509 C6.33104859,20.545145 6.69143223,20.9076283 7.13649616,20.9076283 L24.0741049,20.9076283 C24.5191688,20.9076283 24.8795524,20.545145 24.8795524,20.0987509 C24.8795524,19.6517918 24.5191688,19.2891673 24.0741049,19.2891673 L7.13649616,19.2891673 C6.69143223,19.2891673 6.33104859,19.6517918 6.33104859,20.0987509 Z" id="Fill-3"></path>
                    <path d="M16.0242711,29.5038216 L0.80601023,29.5038216 C0.360946292,29.5038216 0,29.865881 0,30.3128401 C0,30.7597993 0.360946292,31.1222825 0.80601023,31.1222825 L16.0242711,31.1222825 C16.469335,31.1222825 16.8298593,30.7597993 16.8298593,30.3128401 C16.8298593,29.865881 16.469335,29.5038216 16.0242711,29.5038216 Z" id="Fill-4"></path>
                    <g id="Group-8" transform="translate(17.442455, 0.000000)">
                        <path d="M25.9642199,8.93339033 C28.3950512,8.93339033 30.3654859,6.954 30.3654859,4.51281784 C30.3654859,2.07163569 28.3950512,0.0928104089 25.9642199,0.0928104089 C23.5328261,0.0928104089 21.5623913,2.07220074 21.5623913,4.51281784 C21.5623913,6.954 23.5328261,8.93339033 25.9642199,8.93339033 Z" id="Fill-5"></path>
                        <path d="M33.2046675,7.6603197 C30.6770588,11.2156506 27.2928005,11.6272937 23.6509847,9.45592565 C23.403133,9.30858736 22.303133,8.7000223 22.0596419,8.55480297 C16.2012276,5.06191078 10.3498465,6.43146468 6.42501279,11.9506468 C4.75785166,14.2980297 8.61460358,16.5229368 10.2636189,14.2032416 C12.2911637,11.3514052 14.8692711,10.5264238 17.6891816,11.4298067 C16.2451151,13.9465651 14.9830691,16.4479257 13.201688,20.0015613 C11.4203069,23.5559033 7.48661125,26.3937546 3.70722506,24.1743569 C0.979731458,22.5735539 -1.4797954,26.5080372 1.23953964,28.1038959 C6.39969309,31.132171 12.4499744,29.2725725 15.538555,25.3359703 C15.6457417,25.3933234 15.7588363,25.4453086 15.8830435,25.4888178 C18.4062916,26.3717175 21.7140281,28.7224907 22.7217519,29.5551004 C23.728913,30.3884164 25.4603581,34.6318439 26.4879156,36.7640818 C27.7351918,39.3509071 31.762289,37.4670112 30.5105115,34.8686022 C29.345665,32.4494572 27.389578,27.6210558 25.8642072,26.399829 C24.6405627,25.4204461 22.2640281,23.5972937 20.2497059,22.5625353 C21.612468,19.9105874 23.0321995,17.287316 24.5267647,14.7092491 C29.2896803,16.1748625 33.8172634,14.4481933 37.0415857,9.91234944 C38.7108568,7.56539033 34.8546675,5.33991822 33.2046675,7.6603197 Z" id="Fill-7"></path>
                    </g>
                </g>
            </g>
        </g>
    </g>
</svg>
